{
  "accessors": [
    {
      "bufferView": 2,
      "componentType": 5126,
      "count": 65532,
      "max": [
        2.740180015563965,
        10.01308822631836,
        -4.4435601234436035
      ],
      "min": [
        -21.15422248840332,
        1.9351509809494019,
        -18.846372604370117
      ],
      "type": "VEC3"
    },
    {
      "bufferView": 2,
      "byteOffset": 786384,
      "componentType": 5126,
      "count": 65532,
      "max": [
        0.9999412298202515,
        0.9998008012771606,
        0.9999625086784363
      ],
      "min": [
        -0.9999788403511047,
        -0.9999905824661255,
        -0.9999514818191528
      ],
      "type": "VEC3"
    },
    {
      "bufferView": 3,
      "componentType": 5126,
      "count": 65532,
      "max": [
        0.9490196108818054,
        0.9254902005195618,
        0.9882352948188782,
        1.0
      ],
      "min": [
        0.0,
        0.0,
        0.0,
        1.0
      ],
      "type": "VEC4"
    },
    {
      "bufferView": 1,
      "componentType": 5126,
      "count": 65532,
      "max": [
        0.9995099902153015,
        0.9994869828224182
      ],
      "min": [
        1.4999999621068127e-05,
        3.7000001611886546e-05
      ],
      "type": "VEC2"
    },
    {
      "bufferView": 0,
      "componentType": 5125,
      "count": 319110,
      "type": "SCALAR"
    },
    {
      "bufferView": 2,
      "byteOffset": 1572768,
      "componentType": 5126,
      "count": 65532,
      "max": [
        -14.09704303741455,
        11.101157188415527,
        -2.2810399532318115
      ],
      "min": [
        -28.828998565673828,
        2.0946009159088135,
        -16.663311004638672
      ],
      "type": "VEC3"
    },
    {
      "bufferView": 2,
      "byteOffset": 2359152,
      "componentType": 5126,
      "count": 65532,
      "max": [
        0.9998342394828796,
        0.9997450113296509,
        0.9999315142631531
      ],
      "min": [
        -0.9999959468841553,
        -0.9999972581863403,
        -0.999990701675415
      ],
      "type": "VEC3"
    },
    {
      "bufferView": 3,
      "byteOffset": 1048512,
      "componentType": 5126,
      "count": 65532,
      "max": [
        0.9411764740943909,
        0.8980392217636108,
        0.9686274528503418,
        1.0
      ],
      "min": [
        0.0,
        0.0,
        0.0,
        1.0
      ],
      "type": "VEC4"
    },
    {
      "bufferView": 1,
      "byteOffset": 524256,
      "componentType": 5126,
      "count": 65532,
      "max": [
        0.9994999766349792,
        0.9994459748268127
      ],
      "min": [
        1.2999999853491317e-05,
        2.099999983329326e-05
      ],
      "type": "VEC2"
    },
    {
      "bufferView": 0,
      "byteOffset": 1276440,
      "componentType": 5125,
      "count": 323142,
      "type": "SCALAR"
    },
    {
      "bufferView": 2,
      "byteOffset": 3145536,
      "componentType": 5126,
      "count": 65532,
      "max": [
        -11.539786338806152,
        10.966388702392578,
        6.183323860168457
      ],
      "min": [
        -28.736412048339844,
        2.144228935241699,
        -18.64842987060547
      ],
      "type": "VEC3"
    },
    {
      "bufferView": 2,
      "byteOffset": 3931920,
      "componentType": 5126,
      "count": 65532,
      "max": [
        0.9999369978904724,
        0.9999437928199768,
        0.9999972581863403
      ],
      "min": [
        -0.9999009370803833,
        -0.9999975562095642,
        -0.9999331831932068
      ],
      "type": "VEC3"
    },
    {
      "bufferView": 3,
      "byteOffset": 2097024,
      "componentType": 5126,
      "count": 65532,
      "max": [
        0.9647058844566345,
        0.9176470637321472,
        0.9607843160629272,
        1.0
      ],
      "min": [
        0.0,
        0.0,
        0.0,
        1.0
      ],
      "type": "VEC4"
    },
    {
      "bufferView": 1,
      "byteOffset": 1048512,
      "componentType": 5126,
      "count": 65532,
      "max": [
        0.9994469881057739,
        0.9999809861183167
      ],
      "min": [
        0.0002119999990100041,
        6.299999949987978e-05
      ],
      "type": "VEC2"
    },
    {
      "bufferView": 0,
      "byteOffset": 2569008,
      "componentType": 5125,
      "count": 327528,
      "type": "SCALAR"
    },
    {
      "bufferView": 2,
      "byteOffset": 4718304,
      "componentType": 5126,
      "count": 65532,
      "max": [
        -6.060473918914795,
        9.634339332580566,
        2.9170820713043213
      ],
      "min": [
        -18.905797958374023,
        2.1746819019317627,
        -12.037089347839355
      ],
      "type": "VEC3"
    },
    {
      "bufferView": 2,
      "byteOffset": 5504688,
      "componentType": 5126,
      "count": 65532,
      "max": [
        0.9999856948852539,
        0.9989973306655884,
        0.9999823570251465
      ],
      "min": [
        -0.9999335408210754,
        -0.9999929070472717,
        -0.9999839663505554
      ],
      "type": "VEC3"
    },
    {
      "bufferView": 3,
      "byteOffset": 3145536,
      "componentType": 5126,
      "count": 65532,
      "max": [
        0.95686274766922,
        0.8784313797950745,
        0.95686274766922,
        1.0
      ],
      "min": [
        0.0,
        0.0,
        0.0,
        1.0
      ],
      "type": "VEC4"
    },
    {
      "bufferView": 1,
      "byteOffset": 1572768,
      "componentType": 5126,
      "count": 65532,
      "max": [
        0.9994819760322571,
        0.9995089769363403
      ],
      "min": [
        0.00014699999883305281,
        0.00010800000018207356
      ],
      "type": "VEC2"
    },
    {
      "bufferView": 0,
      "byteOffset": 3879120,
      "componentType": 5125,
      "count": 328248,
      "type": "SCALAR"
    },
    {
      "bufferView": 2,
      "byteOffset": 6291072,
      "componentType": 5126,
      "count": 65532,
      "max": [
        -0.10890399664640427,
        9.847586631774902,
        11.287670135498047
      ],
      "min": [
        -20.860570907592773,
        2.216718912124634,
        -5.003995895385742
      ],
      "type": "VEC3"
    },
    {
      "bufferView": 2,
      "byteOffset": 7077456,
      "componentType": 5126,
      "count": 65532,
      "max": [
        0.9999863505363464,
        0.9988043308258057,
        0.9999937415122986
      ],
      "min": [
        -0.9996442794799805,
        -0.9999979734420776,
        -0.9999730587005615
      ],
      "type": "VEC3"
    },
    {
      "bufferView": 3,
      "byteOffset": 4194048,
      "componentType": 5126,
      "count": 65532,
      "max": [
        0.8980392217636108,
        0.8235294222831726,
        0.9490196108818054,
        1.0
      ],
      "min": [
        0.0,
        0.0,
        0.0,
        1.0
      ],
      "type": "VEC4"
    },
    {
      "bufferView": 1,
      "byteOffset": 2097024,
      "componentType": 5126,
      "count": 65532,
      "max": [
        0.9994000196456909,
        0.999413013458252
      ],
      "min": [
        0.0,
        0.0
      ],
      "type": "VEC2"
    },
    {
      "bufferView": 0,
      "byteOffset": 5192112,
      "componentType": 5125,
      "count": 337311,
      "type": "SCALAR"
    },
    {
      "bufferView": 2,
      "byteOffset": 7863840,
      "componentType": 5126,
      "count": 65532,
      "max": [
        5.97997522354126,
        10.104662895202637,
        9.241374015808105
      ],
      "min": [
        -20.663806915283203,
        4.406415939331055,
        -18.846372604370117
      ],
      "type": "VEC3"
    },
    {
      "bufferView": 2,
      "byteOffset": 8650224,
      "componentType": 5126,
      "count": 65532,
      "max": [
        0.9999557733535767,
        0.9988778233528137,
        0.9999370574951172
      ],
      "min": [
        -0.9992806315422058,
        -0.9999982714653015,
        -0.9998601675033569
      ],
      "type": "VEC3"
    },
    {
      "bufferView": 3,
      "byteOffset": 5242560,
      "componentType": 5126,
      "count": 65532,
      "max": [
        0.886274516582489,
        0.8392156958580017,
        0.9058823585510254,
        1.0
      ],
      "min": [
        0.0,
        0.0,
        0.0,
        1.0
      ],
      "type": "VEC4"
    },
    {
      "bufferView": 1,
      "byteOffset": 2621280,
      "componentType": 5126,
      "count": 65532,
      "max": [
        0.9994419813156128,
        0.9993109703063965
      ],
      "min": [
        0.0010689999908208847,
        1.5999999959603883e-05
      ],
      "type": "VEC2"
    },
    {
      "bufferView": 0,
      "byteOffset": 6541356,
      "componentType": 5125,
      "count": 347670,
      "type": "SCALAR"
    },
    {
      "bufferView": 2,
      "byteOffset": 9436608,
      "componentType": 5126,
      "count": 65532,
      "max": [
        0.6084250211715698,
        10.260581016540527,
        3.300368070602417
      ],
      "min": [
        -20.348880767822266,
        3.686450958251953,
        -15.367508888244629
      ],
      "type": "VEC3"
    },
    {
      "bufferView": 2,
      "byteOffset": 10222992,
      "componentType": 5126,
      "count": 65532,
      "max": [
        0.9999642372131348,
        0.9999757409095764,
        0.9999937415122986
      ],
      "min": [
        -0.9999644160270691,
        -0.9999946355819702,
        -0.999988317489624
      ],
      "type": "VEC3"
    },
    {
      "bufferView": 3,
      "byteOffset": 6291072,
      "componentType": 5126,
      "count": 65532,
      "max": [
        0.9215686321258545,
        0.9333333373069763,
        0.9843137264251709,
        1.0
      ],
      "min": [
        0.0,
        0.0,
        0.0,
        1.0
      ],
      "type": "VEC4"
    },
    {
      "bufferView": 1,
      "byteOffset": 3145536,
      "componentType": 5126,
      "count": 65532,
      "max": [
        0.9995080232620239,
        0.9993640184402466
      ],
      "min": [
        0.0,
        0.0
      ],
      "type": "VEC2"
    },
    {
      "bufferView": 0,
      "byteOffset": 7932036,
      "componentType": 5125,
      "count": 322764,
      "type": "SCALAR"
    },
    {
      "bufferView": 2,
      "byteOffset": 11009376,
      "componentType": 5126,
      "count": 64688,
      "max": [
        1.2909640073776245,
        10.01308822631836,
        -0.9605569839477539
      ],
      "min": [
        -15.645912170410156,
        3.353579044342041,
        -18.64842987060547
      ],
      "type": "VEC3"
    },
    {
      "bufferView": 2,
      "byteOffset": 11785632,
      "componentType": 5126,
      "count": 64688,
      "max": [
        0.9999963641166687,
        0.99996417760849,
        0.9999978542327881
      ],
      "min": [
        -0.999565064907074,
        -0.9999960064888,
        -0.999963104724884
      ],
      "type": "VEC3"
    },
    {
      "bufferView": 3,
      "byteOffset": 7339584,
      "componentType": 5126,
      "count": 64688,
      "max": [
        0.9137254953384399,
        0.8509804010391235,
        0.9215686321258545,
        1.0
      ],
      "min": [
        0.0,
        0.0,
        0.0,
        1.0
      ],
      "type": "VEC4"
    },
    {
      "bufferView": 1,
      "byteOffset": 3669792,
      "componentType": 5126,
      "count": 64688,
      "max": [
        0.9994800090789795,
        0.9999369978904724
      ],
      "min": [
        4.600000102072954e-05,
        2.8000000384054147e-05
      ],
      "type": "VEC2"
    },
    {
      "bufferView": 0,
      "byteOffset": 9223092,
      "componentType": 5125,
      "count": 305160,
      "type": "SCALAR"
    }
  ],
  "asset": {
    "extras": {
      "author": "johnturnbull (https://sketchfab.com/johnturnbull)",
      "license": "CC-BY-4.0 (http://creativecommons.org/licenses/by/4.0/)",
      "source": "https://sketchfab.com/3d-models/bare-island-sea-tulips-2a936fe6f2d846ad8064825fc081fbd0",
      "title": "Bare Island Sea Tulips"
    },
    "generator": "Sketchfab-14.38.0",
    "version": "2.0"
  },
  "bufferViews": [
    {
      "buffer": 0,
      "byteLength": 10443732,
      "name": "floatBufferViews",
      "target": 34963
    },
    {
      "buffer": 0,
      "byteLength": 4187296,
      "byteOffset": 10443732,
      "byteStride": 8,
      "name": "floatBufferViews",
      "target": 34962
    },
    {
      "buffer": 0,
      "byteLength": 12561888,
      "byteOffset": 14631028,
      "byteStride": 12,
      "name": "floatBufferViews",
      "target": 34962
    },
    {
      "buffer": 0,
      "byteLength": 8374592,
      "byteOffset": 27192916,
      "byteStride": 16,
      "name": "floatBufferViews",
      "target": 34962
    }
  ],
  "buffers": [
    {
      "byteLength": 35567508,
      "uri": "scene.bin"
    }
  ],
  "materials": [
    {
      "doubleSided": true,
      "name": "Bare_Is_tulip_rock.1001",
      "pbrMetallicRoughness": {
        "metallicFactor": 0.0
      }
    }
  ],
  "meshes": [
    {
      "name": "Object_0",
      "primitives": [
        {
          "attributes": {
            "COLOR_0": 2,
            "NORMAL": 1,
            "POSITION": 0,
            "TEXCOORD_0": 3
          },
          "indices": 4,
          "material": 0,
          "mode": 4
        }
      ]
    },
    {
      "name": "Object_1",
      "primitives": [
        {
          "attributes": {
            "COLOR_0": 7,
            "NORMAL": 6,
            "POSITION": 5,
            "TEXCOORD_0": 8
          },
          "indices": 9,
          "material": 0,
          "mode": 4
        }
      ]
    },
    {
      "name": "Object_2",
      "primitives": [
        {
          "attributes": {
            "COLOR_0": 12,
            "NORMAL": 11,
            "POSITION": 10,
            "TEXCOORD_0": 13
          },
          "indices": 14,
          "material": 0,
          "mode": 4
        }
      ]
    },
    {
      "name": "Object_3",
      "primitives": [
        {
          "attributes": {
            "COLOR_0": 17,
            "NORMAL": 16,
            "POSITION": 15,
            "TEXCOORD_0": 18
          },
          "indices": 19,
          "material": 0,
          "mode": 4
        }
      ]
    },
    {
      "name": "Object_4",
      "primitives": [
        {
          "attributes": {
            "COLOR_0": 22,
            "NORMAL": 21,
            "POSITION": 20,
            "TEXCOORD_0": 23
          },
          "indices": 24,
          "material": 0,
          "mode": 4
        }
      ]
    },
    {
      "name": "Object_5",
      "primitives": [
        {
          "attributes": {
            "COLOR_0": 27,
            "NORMAL": 26,
            "POSITION": 25,
            "TEXCOORD_0": 28
          },
          "indices": 29,
          "material": 0,
          "mode": 4
        }
      ]
    },
    {
      "name": "Object_6",
      "primitives": [
        {
          "attributes": {
            "COLOR_0": 32,
            "NORMAL": 31,
            "POSITION": 30,
            "TEXCOORD_0": 33
          },
          "indices": 34,
          "material": 0,
          "mode": 4
        }
      ]
    },
    {
      "name": "Object_7",
      "primitives": [
        {
          "attributes": {
            "COLOR_0": 37,
            "NORMAL": 36,
            "POSITION": 35,
            "TEXCOORD_0": 38
          },
          "indices": 39,
          "material": 0,
          "mode": 4
        }
      ]
    }
  ],
  "nodes": [
    {
      "children": [
        1
      ],
      "matrix": [
        -6.661338147750939e-16,
        -1.0,
        -2.220446049250313e-16,
        0.0,
        6.123234262925839e-17,
        2.2204460492503128e-16,
        -1.0,
        0.0,
        1.0,
        -6.661338147750939e-16,
        6.123234262925824e-17,
        0.0,
        0.0,
        0.0,
        0.0,
        1.0
      ],
      "name": "Sketchfab_model"
    },
    {
      "children": [
        2,
        3,
        4,
        5,
        6,
        7,
        8,
        9
      ],
      "name": "Bare Is tulip rock.obj.cleaner.materialmerger.gles"
    },
    {
      "mesh": 0,
      "name": "Object_2"
    },
    {
      "mesh": 1,
      "name": "Object_3"
    },
    {
      "mesh": 2,
      "name": "Object_4"
    },
    {
      "mesh": 3,
      "name": "Object_5"
    },
    {
      "mesh": 4,
      "name": "Object_6"
    },
    {
      "mesh": 5,
      "name": "Object_7"
    },
    {
      "mesh": 6,
      "name": "Object_8"
    },
    {
      "mesh": 7,
      "name": "Object_9"
    }
  ],
  "scene": 0,
  "scenes": [
    {
      "name": "Sketchfab_Scene",
      "nodes": [
        0
      ]
    }
  ]
}
